
<svg xmlns="http://www.w3.org/2000/svg" display="none">
  <defs>
    
  </defs>

  <symbol id="sl-upload" viewBox="0 0 24 24">
    <g class="sl-icon">
      <path d="M12 16V4"></path>
      <path d="M7 9l5-5 5 5"></path>
      <path d="M4 16v3a2 2 0 0 0 2 2h12a2 2 0 0 0 2-2v-3"></path>
    </g>
  </symbol>

  <symbol id="sl-camera" viewBox="0 0 24 24">
    <g class="sl-icon">
      <path d="M3 8a2 2 0 0 1 2-2h2l1.5-2h7L17 6h2a2 2 0 0 1 2 2v10a2 2 0 0 1-2 2H5a2 2 0 0 1-2-2z"></path>
      <circle cx="12" cy="13" r="4"></circle>
    </g>
  </symbol>

  <symbol id="sl-image" viewBox="0 0 24 24">
    <g class="sl-icon">
      <rect x="3" y="4" width="18" height="16" rx="3"></rect>
      <circle cx="9" cy="10" r="1.5"></circle>
      <path d="M21 16l-5-5-9 9"></path>
    </g>
  </symbol>

  <symbol id="sl-play" viewBox="0 0 24 24">
    <g class="sl-icon">
      <path d="M7 5l12 7-12 7z" fill="currentColor"></path>
    </g>
  </symbol>

  <symbol id="sl-pause" viewBox="0 0 24 24">
    <g class="sl-icon">
      <rect x="7" y="5" width="3.5" height="14" rx="1" fill="currentColor"></rect>
      <rect x="13.5" y="5" width="3.5" height="14" rx="1" fill="currentColor"></rect>
    </g>
  </symbol>

  <symbol id="sl-download" viewBox="0 0 24 24">
    <g class="sl-icon">
      <path d="M12 4v12"></path>
      <path d="M7 11l5 5 5-5"></path>
      <path d="M4 20h16"></path>
    </g>
  </symbol>

  <symbol id="sl-sparkle" viewBox="0 0 24 24">
    <g class="sl-icon">
      <path d="M12 3l1.5 4.5L18 9l-4.5 1.5L12 15l-1.5-4.5L6 9l4.5-1.5z" fill="currentColor"></path>
      <path d="M19 16l.6 1.7L21 18.3l-1.4.6L19 21l-.6-2.1L17 18.3l1.4-.6z" fill="currentColor"></path>
    </g>
  </symbol>

  <symbol id="sl-book" viewBox="0 0 24 24">
    <g class="sl-icon">
      <path d="M4 5a2 2 0 0 1 2-2h5v17H6a2 2 0 0 1-2-2z"></path>
      <path d="M20 5a2 2 0 0 0-2-2h-5v17h5a2 2 0 0 0 2-2z"></path>
      <path d="M12 3v17"></path>
    </g>
  </symbol>

  <symbol id="sl-heart" viewBox="0 0 24 24">
    <g class="sl-icon">
      <path d="M12 20s-7-4.5-7-10a4 4 0 0 1 7-2.5A4 4 0 0 1 19 10c0 5.5-7 10-7 10z"></path>
    </g>
  </symbol>

  <symbol id="sl-globe" viewBox="0 0 24 24">
    <g class="sl-icon">
      <circle cx="12" cy="12" r="9"></circle>
      <path d="M3 12h18"></path>
      <path d="M12 3c2.8 3 4.2 6 4.2 9s-1.4 6-4.2 9c-2.8-3-4.2-6-4.2-9s1.4-6 4.2-9z"></path>
    </g>
  </symbol>

  <symbol id="sl-check" viewBox="0 0 24 24">
    <g class="sl-icon">
      <path d="M5 12l5 5 9-10"></path>
    </g>
  </symbol>

  <symbol id="sl-x" viewBox="0 0 24 24">
    <g class="sl-icon">
      <path d="M6 6l12 12M18 6L6 18"></path>
    </g>
  </symbol>

  <symbol id="sl-arrow-right" viewBox="0 0 24 24">
    <g class="sl-icon">
      <path d="M5 12h14"></path>
      <path d="M13 6l6 6-6 6"></path>
    </g>
  </symbol>

  <symbol id="sl-arrow-left" viewBox="0 0 24 24">
    <g class="sl-icon">
      <path d="M19 12H5"></path>
      <path d="M11 18l-6-6 6-6"></path>
    </g>
  </symbol>

  <symbol id="sl-share" viewBox="0 0 24 24">
    <g class="sl-icon">
      <circle cx="18" cy="6" r="3"></circle>
      <circle cx="6" cy="12" r="3"></circle>
      <circle cx="18" cy="18" r="3"></circle>
      <path d="M8.5 10.5l7-3M8.5 13.5l7 3"></path>
    </g>
  </symbol>

  <symbol id="sl-user" viewBox="0 0 24 24">
    <g class="sl-icon">
      <circle cx="12" cy="8" r="4"></circle>
      <path d="M4 21a8 8 0 0 1 16 0"></path>
    </g>
  </symbol>

  <symbol id="sl-menu" viewBox="0 0 24 24">
    <g class="sl-icon">
      <path d="M4 7h16M4 12h16M4 17h16"></path>
    </g>
  </symbol>

  <symbol id="sl-mic" viewBox="0 0 24 24">
    <g class="sl-icon">
      <rect x="9" y="3" width="6" height="12" rx="3"></rect>
      <path d="M5 11a7 7 0 0 0 14 0"></path>
      <path d="M12 18v3"></path>
    </g>
  </symbol>

  <symbol id="sl-moon" viewBox="0 0 24 24">
    <g class="sl-icon">
      <path d="M20 14a8 8 0 0 1-10-10 8 8 0 1 0 10 10z" fill="currentColor"></path>
    </g>
  </symbol>

  <symbol id="sl-sun" viewBox="0 0 24 24">
    <g class="sl-icon">
      <circle cx="12" cy="12" r="4" fill="currentColor"></circle>
      <path d="M12 3v2M12 19v2M3 12h2M19 12h2M5.6 5.6l1.4 1.4M17 17l1.4 1.4M5.6 18.4L7 17M17 7l1.4-1.4"></path>
    </g>
  </symbol>

  <symbol id="sl-clock" viewBox="0 0 24 24">
    <g class="sl-icon">
      <circle cx="12" cy="12" r="9"></circle>
      <path d="M12 7v5l3 2"></path>
    </g>
  </symbol>

  <symbol id="sl-trash" viewBox="0 0 24 24">
    <g class="sl-icon">
      <path d="M4 7h16"></path>
      <path d="M10 11v6M14 11v6"></path>
      <path d="M6 7l1 13a2 2 0 0 0 2 2h6a2 2 0 0 0 2-2l1-13"></path>
      <path d="M9 7V5a2 2 0 0 1 2-2h2a2 2 0 0 1 2 2v2"></path>
    </g>
  </symbol>

  <symbol id="sl-settings" viewBox="0 0 24 24">
    <g class="sl-icon">
      <circle cx="12" cy="12" r="3"></circle>
      <path d="M19 15l1.5.8a1 1 0 0 1 .4 1.4l-1.4 2.4a1 1 0 0 1-1.4.3L16.5 19a7 7 0 0 1-2.5 1.5l-.4 1.7a1 1 0 0 1-1 .8h-2.8a1 1 0 0 1-1-.8l-.4-1.7A7 7 0 0 1 5.9 19l-1.6.8a1 1 0 0 1-1.3-.3l-1.4-2.4a1 1 0 0 1 .3-1.4l1.6-1A7 7 0 0 1 3.3 12a7 7 0 0 1 .2-2L1.9 9a1 1 0 0 1-.4-1.4l1.4-2.4a1 1 0 0 1 1.4-.3L5.9 5A7 7 0 0 1 8.4 3.5l.4-1.7a1 1 0 0 1 1-.8h2.8a1 1 0 0 1 1 .8l.4 1.7A7 7 0 0 1 16.5 5l1.6-.8a1 1 0 0 1 1.3.3l1.4 2.4a1 1 0 0 1-.3 1.4L19 9a7 7 0 0 1 .2 2 7 7 0 0 1-.2 2z"></path>
    </g>
  </symbol>

  <symbol id="sl-volume" viewBox="0 0 24 24">
    <g class="sl-icon">
      <path d="M4 10v4a1 1 0 0 0 1 1h3l4 4V5L8 9H5a1 1 0 0 0-1 1z"></path>
      <path d="M16 8a6 6 0 0 1 0 8"></path>
      <path d="M19 5a10 10 0 0 1 0 14"></path>
    </g>
  </symbol>
</svg>