<svg xmlns="http://www.w3.org/2000/svg" viewBox="0 0 400 240" fill="none">
  <rect width="400" height="240" fill="#3A2A55"/>
  <rect width="400" height="120" fill="#4A2A6B"/>
  <g fill="#FFF7EC">
    <circle cx="40" cy="40" r="1.2"/>
    <circle cx="80" cy="80" r="0.8"/>
    <circle cx="130" cy="30" r="1.5"/>
    <circle cx="200" cy="55" r="1"/>
    <circle cx="260" cy="35" r="1.8"/>
    <circle cx="320" cy="70" r="1"/>
    <circle cx="360" cy="40" r="1.2"/>
    <circle cx="55" cy="130" r="0.9"/>
    <circle cx="370" cy="160" r="1.1"/>
  </g>
  <g fill="#F4B23A">
    <path d="M100 110 L101.5 114 L105.5 115.5 L101.5 117 L100 121 L98.5 117 L94.5 115.5 L98.5 114 Z"/>
    <path d="M310 130 L311.5 134 L315.5 135.5 L311.5 137 L310 141 L308.5 137 L304.5 135.5 L308.5 134 Z"/>
  </g>
  <g transform="translate(310 80)">
    <ellipse cx="0" cy="0" rx="38" ry="9" fill="none" stroke="#F4B23A" stroke-width="3" opacity="0.85"/>
    <circle r="22" fill="#FB9270"/>
    <circle r="22" fill="#F46A4E" opacity="0.6" transform="translate(-4 -4)"/>
  </g>
  <circle cx="200" cy="380" r="220" fill="#6BB5D8"/>
  <path d="M120 200 Q 160 195 200 198 T 280 200 Q 270 215 240 218 T 150 215 Z" fill="#6FA886" opacity="0.85"/>
  <g transform="translate(150 130)">
    <path d="M0 30 Q 6 50 0 60 Q -6 50 0 30 Z" fill="#F4B23A"/>
    <path d="M0 32 Q 4 46 0 54 Q -4 46 0 32 Z" fill="#FFF7EC"/>
    <rect x="-12" y="-20" width="24" height="50" rx="12" fill="#FFF7EC" stroke="#3A2C24" stroke-width="2"/>
    <circle cy="-2" r="7" fill="#6BB5D8" stroke="#3A2C24" stroke-width="2"/>
    <path d="M-12 -20 Q 0 -34 12 -20 Z" fill="#F46A4E" stroke="#3A2C24" stroke-width="2"/>
    <path d="M-12 18 L -22 30 L -12 30 Z" fill="#F46A4E" stroke="#3A2C24" stroke-width="2"/>
    <path d="M12 18 L 22 30 L 12 30 Z" fill="#F46A4E" stroke="#3A2C24" stroke-width="2"/>
  </g>
</svg>
